<svg width="36" height="36" viewBox="0 0 36 36" fill="none" xmlns="http://www.w3.org/2000/svg">
<mask id="mask0_75_231" style="mask-type:alpha" maskUnits="userSpaceOnUse" x="0" y="0" width="36" height="36">
<rect width="36" height="36" fill="#D9D9D9"/>
</mask>
<g mask="url(#mask0_75_231)">
<path d="M4.96163 31.644C4.20387 31.644 3.5625 31.3815 3.0375 30.8565C2.5125 30.3315 2.25 29.6903 2.25 28.9328V13.8173H4.5V28.9328C4.5 29.048 4.54812 29.1537 4.64437 29.25C4.74037 29.346 4.84612 29.394 4.96163 29.394H28.875V31.644H4.96163ZM10.2116 26.394C9.45388 26.394 8.8125 26.1316 8.2875 25.6069C7.7625 25.0819 7.5 24.4405 7.5 23.6828V8.39437H15.2306V5.71163C15.2306 4.95387 15.4931 4.3125 16.0181 3.7875C16.5431 3.2625 17.1845 3 17.9423 3H23.3078C24.0653 3 24.7065 3.2625 25.2315 3.7875C25.7565 4.3125 26.019 4.95387 26.019 5.71163V8.39437H33.75V23.6828C33.75 24.4405 33.4875 25.0819 32.9625 25.6069C32.4375 26.1316 31.7961 26.394 31.0384 26.394H10.2116ZM10.2116 24.1444H31.0384C31.1539 24.1444 31.2596 24.0963 31.3556 24C31.4519 23.9037 31.5 23.798 31.5 23.6828V10.6444H9.75V23.6828C9.75 23.798 9.798 23.9037 9.894 24C9.99025 24.0963 10.0961 24.1444 10.2116 24.1444ZM17.4806 8.39437H23.7694V5.71163C23.7694 5.59612 23.7213 5.49037 23.625 5.39437C23.5287 5.29812 23.423 5.25 23.3078 5.25H17.9423C17.827 5.25 17.7212 5.29812 17.625 5.39437C17.5288 5.49037 17.4806 5.59612 17.4806 5.71163V8.39437Z" fill="#E6EDF3"/>
</g>
</svg>
