<svg width="36" height="36" viewBox="0 0 36 36" fill="none" xmlns="http://www.w3.org/2000/svg">
<mask id="mask0_21_810" style="mask-type:alpha" maskUnits="userSpaceOnUse" x="0" y="0" width="36" height="36">
<rect width="36" height="36" fill="#D9D9D9"/>
</mask>
<g mask="url(#mask0_21_810)">
<path d="M17.9981 17.9134C16.8399 17.9134 15.8631 17.5158 15.0679 16.7205C14.2726 15.9255 13.875 14.9488 13.875 13.7902C13.875 12.6545 14.2726 11.6828 15.0679 10.875C15.8631 10.0672 16.8399 9.66337 17.9981 9.66337C19.1339 9.66337 20.1056 10.0672 20.9134 10.875C21.7211 11.6828 22.125 12.6545 22.125 13.7902C22.125 14.9488 21.7211 15.9255 20.9134 16.7205C20.1056 17.5158 19.1339 17.9134 17.9981 17.9134ZM18 15.6634C18.5212 15.6634 18.964 15.4838 19.3282 15.1245C19.6927 14.765 19.875 14.3196 19.875 13.7884C19.875 13.2674 19.6927 12.8246 19.3282 12.4601C18.964 12.0956 18.5189 11.9134 17.9929 11.9134C17.4669 11.9134 17.024 12.0956 16.6642 12.4601C16.3047 12.8246 16.125 13.2699 16.125 13.7959C16.125 14.3216 16.3046 14.7644 16.6639 15.1241C17.0234 15.4836 17.4688 15.6634 18 15.6634ZM9.375 26.3366V23.8616C9.375 23.3981 9.492 22.9621 9.726 22.5536C9.96 22.1454 10.2776 21.8197 10.6789 21.5768C11.7904 20.921 12.963 20.4254 14.1967 20.0899C15.4303 19.7544 16.698 19.5866 18 19.5866C19.302 19.5866 20.5697 19.7544 21.8032 20.0899C23.037 20.4254 24.2096 20.921 25.3211 21.5768C25.7224 21.8197 26.04 22.1454 26.274 22.5536C26.508 22.9621 26.625 23.3981 26.625 23.8616V26.3366H9.375ZM18 21.8366C16.927 21.8366 15.8645 21.9807 14.8125 22.269C13.7605 22.5575 12.7441 22.9806 11.7634 23.5384V24.1009H24.2366V23.5241C23.2654 22.9664 22.2514 22.5456 21.1946 22.2619C20.1379 21.9784 19.073 21.8366 18 21.8366ZM6.4665 32.25C5.7055 32.25 5.0625 31.9875 4.5375 31.4625C4.0125 30.9375 3.75 30.2945 3.75 29.5335V24H6V29.5384C6 29.6539 6.04813 29.7596 6.14438 29.8556C6.24038 29.9519 6.34612 30 6.46163 30H12V32.25H6.4665ZM3.75 12V6.4665C3.75 5.7055 4.0125 5.0625 4.5375 4.5375C5.0625 4.0125 5.7055 3.75 6.4665 3.75H12V6H6.46163C6.34612 6 6.24038 6.04812 6.14438 6.14437C6.04813 6.24037 6 6.34612 6 6.46163V12H3.75ZM24 32.25V30H29.5384C29.6539 30 29.7596 29.9519 29.8556 29.8556C29.9519 29.7596 30 29.6539 30 29.5384V24H32.25V29.5335C32.25 30.2945 31.9875 30.9375 31.4625 31.4625C30.9375 31.9875 30.2945 32.25 29.5335 32.25H24ZM30 12V6.46163C30 6.34612 29.9519 6.24037 29.8556 6.14437C29.7596 6.04812 29.6539 6 29.5384 6H24V3.75H29.5335C30.2945 3.75 30.9375 4.0125 31.4625 4.5375C31.9875 5.0625 32.25 5.7055 32.25 6.4665V12H30Z" fill="#E6EDF3"/>
</g>
</svg>
