<svg width="128" height="128" viewBox="0 0 128 128" fill="none" xmlns="http://www.w3.org/2000/svg">
<g opacity="0.75">
<circle cx="64" cy="64" r="63" stroke="url(#paint0_linear_534_239)" stroke-width="2"/>
<mask id="mask0_534_239" style="mask-type:alpha" maskUnits="userSpaceOnUse" x="37" y="37" width="54" height="54">
<rect x="37.5" y="37.5" width="53" height="53" fill="#D9D9D9" stroke="url(#paint1_linear_534_239)"/>
</mask>
<g mask="url(#mask0_534_239)">
<path d="M57.25 52.7625H57.2625V52.75V49.6343C57.2625 48.602 57.6082 47.7407 58.2995 47.0495C58.9907 46.3582 59.8522 46.0125 60.8849 46.0125H67.1151C68.1478 46.0125 69.0093 46.3582 69.7005 47.0495C70.3918 47.7407 70.7375 48.602 70.7375 49.6343V52.75V52.7625H70.75H80.6151C81.6478 52.7625 82.5093 53.1082 83.2005 53.7995C83.8918 54.4907 84.2375 55.3522 84.2375 56.3849V78.3651C84.2375 79.3978 83.8918 80.2593 83.2005 80.9505C82.5093 81.6418 81.6478 81.9875 80.6151 81.9875H47.3849C46.3522 81.9875 45.4907 81.6418 44.7995 80.9505C44.1082 80.2593 43.7625 79.3978 43.7625 78.3651V56.3849C43.7625 55.3522 44.1082 54.4907 44.7995 53.7995C45.4907 53.1082 46.3522 52.7625 47.3849 52.7625H57.25ZM59.4875 52.75V52.7625H59.5H68.5H68.5125V52.75V49.6343C68.5125 49.2843 68.3665 48.964 68.0763 48.6737C67.786 48.3835 67.4655 48.2375 67.1151 48.2375H60.8849C60.5345 48.2375 60.214 48.3835 59.9237 48.6737C59.6335 48.964 59.4875 49.2843 59.4875 49.6343V52.75ZM82.0125 69.625V69.6125H82H68.5H68.4875V69.625V72.9875H59.5125V69.625V69.6125H59.5H46H45.9875V69.625V78.3651C45.9875 78.7155 46.1335 79.036 46.4237 79.3263C46.714 79.6165 47.0345 79.7625 47.3849 79.7625H80.6151C80.9655 79.7625 81.286 79.6165 81.5763 79.3263C81.8666 79.036 82.0125 78.7155 82.0125 78.3651V69.625ZM61.7375 70.75V70.7625H61.75H66.25H66.2625V70.75V66.25V66.2375H66.25H61.75H61.7375V66.25V70.75ZM45.9875 67.375V67.3875H46H59.5H59.5125V67.375V64.0125H68.4875V67.375V67.3875H68.5H82H82.0125V67.375V56.3849C82.0125 56.0345 81.8666 55.714 81.5763 55.4237C81.286 55.1335 80.9655 54.9875 80.6151 54.9875H47.3849C47.0345 54.9875 46.714 55.1335 46.4237 55.4237C46.1335 55.714 45.9875 56.0345 45.9875 56.3849V67.375Z" fill="#1C1B1F"/>
<path d="M57.25 52.7625H57.2625V52.75V49.6343C57.2625 48.602 57.6082 47.7407 58.2995 47.0495C58.9907 46.3582 59.8522 46.0125 60.8849 46.0125H67.1151C68.1478 46.0125 69.0093 46.3582 69.7005 47.0495C70.3918 47.7407 70.7375 48.602 70.7375 49.6343V52.75V52.7625H70.75H80.6151C81.6478 52.7625 82.5093 53.1082 83.2005 53.7995C83.8918 54.4907 84.2375 55.3522 84.2375 56.3849V78.3651C84.2375 79.3978 83.8918 80.2593 83.2005 80.9505C82.5093 81.6418 81.6478 81.9875 80.6151 81.9875H47.3849C46.3522 81.9875 45.4907 81.6418 44.7995 80.9505C44.1082 80.2593 43.7625 79.3978 43.7625 78.3651V56.3849C43.7625 55.3522 44.1082 54.4907 44.7995 53.7995C45.4907 53.1082 46.3522 52.7625 47.3849 52.7625H57.25ZM59.4875 52.75V52.7625H59.5H68.5H68.5125V52.75V49.6343C68.5125 49.2843 68.3665 48.964 68.0763 48.6737C67.786 48.3835 67.4655 48.2375 67.1151 48.2375H60.8849C60.5345 48.2375 60.214 48.3835 59.9237 48.6737C59.6335 48.964 59.4875 49.2843 59.4875 49.6343V52.75ZM82.0125 69.625V69.6125H82H68.5H68.4875V69.625V72.9875H59.5125V69.625V69.6125H59.5H46H45.9875V69.625V78.3651C45.9875 78.7155 46.1335 79.036 46.4237 79.3263C46.714 79.6165 47.0345 79.7625 47.3849 79.7625H80.6151C80.9655 79.7625 81.286 79.6165 81.5763 79.3263C81.8666 79.036 82.0125 78.7155 82.0125 78.3651V69.625ZM61.7375 70.75V70.7625H61.75H66.25H66.2625V70.75V66.25V66.2375H66.25H61.75H61.7375V66.25V70.75ZM45.9875 67.375V67.3875H46H59.5H59.5125V67.375V64.0125H68.4875V67.375V67.3875H68.5H82H82.0125V67.375V56.3849C82.0125 56.0345 81.8666 55.714 81.5763 55.4237C81.286 55.1335 80.9655 54.9875 80.6151 54.9875H47.3849C47.0345 54.9875 46.714 55.1335 46.4237 55.4237C46.1335 55.714 45.9875 56.0345 45.9875 56.3849V67.375Z" fill="url(#paint2_linear_534_239)"/>
<path d="M57.25 52.7625H57.2625V52.75V49.6343C57.2625 48.602 57.6082 47.7407 58.2995 47.0495C58.9907 46.3582 59.8522 46.0125 60.8849 46.0125H67.1151C68.1478 46.0125 69.0093 46.3582 69.7005 47.0495C70.3918 47.7407 70.7375 48.602 70.7375 49.6343V52.75V52.7625H70.75H80.6151C81.6478 52.7625 82.5093 53.1082 83.2005 53.7995C83.8918 54.4907 84.2375 55.3522 84.2375 56.3849V78.3651C84.2375 79.3978 83.8918 80.2593 83.2005 80.9505C82.5093 81.6418 81.6478 81.9875 80.6151 81.9875H47.3849C46.3522 81.9875 45.4907 81.6418 44.7995 80.9505C44.1082 80.2593 43.7625 79.3978 43.7625 78.3651V56.3849C43.7625 55.3522 44.1082 54.4907 44.7995 53.7995C45.4907 53.1082 46.3522 52.7625 47.3849 52.7625H57.25ZM59.4875 52.75V52.7625H59.5H68.5H68.5125V52.75V49.6343C68.5125 49.2843 68.3665 48.964 68.0763 48.6737C67.786 48.3835 67.4655 48.2375 67.1151 48.2375H60.8849C60.5345 48.2375 60.214 48.3835 59.9237 48.6737C59.6335 48.964 59.4875 49.2843 59.4875 49.6343V52.75ZM82.0125 69.625V69.6125H82H68.5H68.4875V69.625V72.9875H59.5125V69.625V69.6125H59.5H46H45.9875V69.625V78.3651C45.9875 78.7155 46.1335 79.036 46.4237 79.3263C46.714 79.6165 47.0345 79.7625 47.3849 79.7625H80.6151C80.9655 79.7625 81.286 79.6165 81.5763 79.3263C81.8666 79.036 82.0125 78.7155 82.0125 78.3651V69.625ZM61.7375 70.75V70.7625H61.75H66.25H66.2625V70.75V66.25V66.2375H66.25H61.75H61.7375V66.25V70.75ZM45.9875 67.375V67.3875H46H59.5H59.5125V67.375V64.0125H68.4875V67.375V67.3875H68.5H82H82.0125V67.375V56.3849C82.0125 56.0345 81.8666 55.714 81.5763 55.4237C81.286 55.1335 80.9655 54.9875 80.6151 54.9875H47.3849C47.0345 54.9875 46.714 55.1335 46.4237 55.4237C46.1335 55.714 45.9875 56.0345 45.9875 56.3849V67.375Z" stroke="url(#paint3_linear_534_239)" stroke-width="0.025"/>
</g>
</g>
<defs>
<linearGradient id="paint0_linear_534_239" x1="-30.7091" y1="105.534" x2="249.453" y2="103.233" gradientUnits="userSpaceOnUse">
<stop offset="0.165016" stop-color="#A9D1FF"/>
<stop offset="0.808399" stop-color="#1E78FF"/>
</linearGradient>
<linearGradient id="paint1_linear_534_239" x1="24.0446" y1="81.5222" x2="142.238" y2="80.5514" gradientUnits="userSpaceOnUse">
<stop offset="0.165016" stop-color="#A9D1FF"/>
<stop offset="0.808399" stop-color="#1E78FF"/>
</linearGradient>
<linearGradient id="paint2_linear_534_239" x1="34.0335" y1="75.6815" x2="122.677" y2="74.8623" gradientUnits="userSpaceOnUse">
<stop offset="0.165016" stop-color="#A9D1FF"/>
<stop offset="0.808399" stop-color="#4F95FF"/>
</linearGradient>
<linearGradient id="paint3_linear_534_239" x1="34.0335" y1="75.6815" x2="122.677" y2="74.8623" gradientUnits="userSpaceOnUse">
<stop offset="0.165016" stop-color="#A9D1FF"/>
<stop offset="0.808399" stop-color="#1E78FF"/>
</linearGradient>
</defs>
</svg>
