<svg width="128" height="128" viewBox="0 0 128 128" fill="none" xmlns="http://www.w3.org/2000/svg">
<g opacity="0.75">
<circle cx="64" cy="64" r="63" stroke="url(#paint0_linear_21_1104)" stroke-width="2"/>
<mask id="mask0_21_1104" style="mask-type:alpha" maskUnits="userSpaceOnUse" x="37" y="37" width="54" height="54">
<rect x="37.5" y="37.5" width="53" height="53" fill="#D9D9D9" stroke="url(#paint1_linear_21_1104)"/>
</mask>
<g mask="url(#mask0_21_1104)">
<path d="M65.2766 83.5354L61.5539 74.7645L61.5548 74.7641L61.5512 74.7605L53.5333 66.7427L53.534 66.742L53.5294 66.74L44.7584 62.9746L52.8842 54.8353C52.8842 54.8353 52.8842 54.8353 52.8842 54.8353C53.3212 54.3983 53.825 54.0893 54.3957 53.908C54.3957 53.908 54.3957 53.908 54.3957 53.908L54.3919 53.8961M65.2766 83.5354L56.1573 53.8178L56.1598 53.8056M65.2766 83.5354L73.4585 75.3967L65.2766 83.5354ZM54.3919 53.8961C54.9645 53.7146 55.5538 53.6844 56.1598 53.8056M54.3919 53.8961C53.8193 54.078 53.3138 54.3881 52.8754 54.8265L54.3919 53.8961ZM56.1598 53.8056L56.1574 53.8178M56.1598 53.8056L60.8629 54.7573C61.0073 54.6133 61.1299 54.4836 61.2308 54.3681C61.3316 54.2526 61.4543 54.1228 61.5986 53.9788C64.6043 50.9728 67.8407 48.7646 71.3079 47.3542L56.1574 53.8178M56.1574 53.8178L60.8604 54.7696L60.8584 54.7794L60.8717 54.7662C61.0162 54.622 61.1391 54.4921 61.2402 54.3763C61.3408 54.2611 61.4632 54.1315 61.6075 53.9877L61.6075 53.9876C64.6121 50.9827 67.8471 48.7755 71.3127 47.3658C74.7749 45.9571 78.57 45.3772 82.698 45.6262M56.1574 53.8178L82.698 45.6262M82.698 45.6262C82.9471 49.7539 82.3621 53.551 80.9432 57.0178C79.5235 60.4878 77.3112 63.7251 74.3062 66.7297L74.3062 66.7297C74.1622 66.8741 74.0325 67.004 73.917 67.1195C73.8015 67.2347 73.6717 67.3644 73.5277 67.5088L73.5207 67.5018L73.5243 67.52L74.4327 72.137L74.4327 72.1371C74.5535 72.7408 74.5305 73.3256 74.3638 73.8917C74.1972 74.4581 73.8955 74.9597 73.4586 75.3967L82.698 45.6262ZM48.6652 62.2297L48.6521 62.2428L48.6692 62.2501L54.1817 64.5822L54.1925 64.5868L54.1978 64.5763C54.8954 63.1805 55.6554 61.8296 56.4775 60.5234C57.2993 59.2169 58.2061 57.9466 59.1981 56.7125L59.2111 56.6963L59.1907 56.6924L55.7384 56.0304C55.5053 55.9722 55.2793 55.9794 55.0607 56.0521L55.0607 56.0521C54.8423 56.1252 54.6461 56.2489 54.4719 56.423L48.6652 62.2297ZM55.9577 65.9937L55.9542 66.0016L55.9603 66.0077L62.3295 72.364L62.3356 72.3701L62.3435 72.3665C64.1213 71.564 65.9105 70.5439 67.7111 69.306C69.5118 68.068 71.243 66.6181 72.9047 64.9564C75.3289 62.5322 77.181 59.9471 78.4608 57.201C79.7411 54.4547 80.4604 51.2835 80.6191 47.6878L80.6197 47.6742L80.6061 47.6748C77.0104 47.8334 73.8443 48.5528 71.108 49.8331C68.372 51.1129 65.792 52.965 63.3679 55.3892C61.7061 57.0509 60.2562 58.7895 59.0182 60.6048C57.7804 62.4195 56.7602 64.2159 55.9577 65.9937ZM66.0438 79.668L66.051 79.6851L66.0642 79.672L71.8708 73.8653C72.045 73.6911 72.1687 73.4949 72.2417 73.2765L72.2417 73.2765C72.3145 73.0579 72.3217 72.8319 72.2635 72.5988C72.2634 72.5987 72.2634 72.5986 72.2634 72.5985L71.6015 69.1465L71.5976 69.1261L71.5814 69.1391C70.3472 70.1311 69.077 71.0359 67.7705 71.8535C66.4643 72.6711 65.1134 73.4288 63.7176 74.1265L63.7071 74.1317L63.7117 74.1425L66.0438 79.668ZM48.1509 80.1595L48.1491 80.1752L48.1648 80.1734C49.2072 80.0521 50.2187 79.7987 51.1992 79.4132C52.1789 79.0278 52.8867 78.6181 53.3213 78.1836C53.7735 77.7313 54.0042 77.1916 54.0129 76.565C54.0216 75.9387 53.7995 75.399 53.3472 74.9467C52.8948 74.4943 52.355 74.2773 51.7286 74.2962C51.1021 74.315 50.5625 74.5508 50.1103 75.003C49.6757 75.4375 49.2711 76.1454 48.8958 77.1251C48.5205 78.1056 48.2722 79.1171 48.1509 80.1595ZM67.6347 60.6463C66.9766 59.9878 66.6478 59.1985 66.6478 58.2774C66.6478 57.3564 66.9766 56.567 67.6347 55.9086C68.293 55.2502 69.0918 54.9211 70.0316 54.9211C70.9715 54.9211 71.7702 55.2502 72.4286 55.9086C73.087 56.567 73.4161 57.3564 73.4161 58.2774C73.4161 59.1985 73.087 59.9878 72.4286 60.6463C71.7702 61.3043 70.9715 61.6332 70.0316 61.6332C69.0918 61.6332 68.293 61.3043 67.6347 60.6463ZM48.5226 73.3849C49.3999 72.5075 50.4662 72.074 51.7222 72.0841C52.9782 72.0942 54.0445 72.5379 54.9219 73.4153C55.7993 74.2926 56.2358 75.3589 56.2317 76.6149C56.2272 77.8709 55.7864 78.9372 54.909 79.8146C54.1464 80.5768 52.9219 81.2308 51.2341 81.7758C49.55 82.3195 47.6022 82.6954 45.3906 82.9033C45.5986 80.6917 45.9816 78.7442 46.5394 77.0604C47.099 75.3722 47.7603 74.1475 48.5226 73.3849Z" fill="#1C1B1F"/>
<path d="M65.2766 83.5354L61.5539 74.7645L61.5548 74.7641L61.5512 74.7605L53.5333 66.7427L53.534 66.742L53.5294 66.74L44.7584 62.9746L52.8842 54.8353C52.8842 54.8353 52.8842 54.8353 52.8842 54.8353C53.3212 54.3983 53.825 54.0893 54.3957 53.908C54.3957 53.908 54.3957 53.908 54.3957 53.908L54.3919 53.8961M65.2766 83.5354L56.1573 53.8178L56.1598 53.8056M65.2766 83.5354L73.4585 75.3967L65.2766 83.5354ZM54.3919 53.8961C54.9645 53.7146 55.5538 53.6844 56.1598 53.8056M54.3919 53.8961C53.8193 54.078 53.3138 54.3881 52.8754 54.8265L54.3919 53.8961ZM56.1598 53.8056L56.1574 53.8178M56.1598 53.8056L60.8629 54.7573C61.0073 54.6133 61.1299 54.4836 61.2308 54.3681C61.3316 54.2526 61.4543 54.1228 61.5986 53.9788C64.6043 50.9728 67.8407 48.7646 71.3079 47.3542L56.1574 53.8178M56.1574 53.8178L60.8604 54.7696L60.8584 54.7794L60.8717 54.7662C61.0162 54.622 61.1391 54.4921 61.2402 54.3763C61.3408 54.2611 61.4632 54.1315 61.6075 53.9877L61.6075 53.9876C64.6121 50.9827 67.8471 48.7755 71.3127 47.3658C74.7749 45.9571 78.57 45.3772 82.698 45.6262M56.1574 53.8178L82.698 45.6262M82.698 45.6262C82.9471 49.7539 82.3621 53.551 80.9432 57.0178C79.5235 60.4878 77.3112 63.7251 74.3062 66.7297L74.3062 66.7297C74.1622 66.8741 74.0325 67.004 73.917 67.1195C73.8015 67.2347 73.6717 67.3644 73.5277 67.5088L73.5207 67.5018L73.5243 67.52L74.4327 72.137L74.4327 72.1371C74.5535 72.7408 74.5305 73.3256 74.3638 73.8917C74.1972 74.4581 73.8955 74.9597 73.4586 75.3967L82.698 45.6262ZM48.6652 62.2297L48.6521 62.2428L48.6692 62.2501L54.1817 64.5822L54.1925 64.5868L54.1978 64.5763C54.8954 63.1805 55.6554 61.8296 56.4775 60.5234C57.2993 59.2169 58.2061 57.9466 59.1981 56.7125L59.2111 56.6963L59.1907 56.6924L55.7384 56.0304C55.5053 55.9722 55.2793 55.9794 55.0607 56.0521L55.0607 56.0521C54.8423 56.1252 54.6461 56.2489 54.4719 56.423L48.6652 62.2297ZM55.9577 65.9937L55.9542 66.0016L55.9603 66.0077L62.3295 72.364L62.3356 72.3701L62.3435 72.3665C64.1213 71.564 65.9105 70.5439 67.7111 69.306C69.5118 68.068 71.243 66.6181 72.9047 64.9564C75.3289 62.5322 77.181 59.9471 78.4608 57.201C79.7411 54.4547 80.4604 51.2835 80.6191 47.6878L80.6197 47.6742L80.6061 47.6748C77.0104 47.8334 73.8443 48.5528 71.108 49.8331C68.372 51.1129 65.792 52.965 63.3679 55.3892C61.7061 57.0509 60.2562 58.7895 59.0182 60.6048C57.7804 62.4195 56.7602 64.2159 55.9577 65.9937ZM66.0438 79.668L66.051 79.6851L66.0642 79.672L71.8708 73.8653C72.045 73.6911 72.1687 73.4949 72.2417 73.2765L72.2417 73.2765C72.3145 73.0579 72.3217 72.8319 72.2635 72.5988C72.2634 72.5987 72.2634 72.5986 72.2634 72.5985L71.6015 69.1465L71.5976 69.1261L71.5814 69.1391C70.3472 70.1311 69.077 71.0359 67.7705 71.8535C66.4643 72.6711 65.1134 73.4288 63.7176 74.1265L63.7071 74.1317L63.7117 74.1425L66.0438 79.668ZM48.1509 80.1595L48.1491 80.1752L48.1648 80.1734C49.2072 80.0521 50.2187 79.7987 51.1992 79.4132C52.1789 79.0278 52.8867 78.6181 53.3213 78.1836C53.7735 77.7313 54.0042 77.1916 54.0129 76.565C54.0216 75.9387 53.7995 75.399 53.3472 74.9467C52.8948 74.4943 52.355 74.2773 51.7286 74.2962C51.1021 74.315 50.5625 74.5508 50.1103 75.003C49.6757 75.4375 49.2711 76.1454 48.8958 77.1251C48.5205 78.1056 48.2722 79.1171 48.1509 80.1595ZM67.6347 60.6463C66.9766 59.9878 66.6478 59.1985 66.6478 58.2774C66.6478 57.3564 66.9766 56.567 67.6347 55.9086C68.293 55.2502 69.0918 54.9211 70.0316 54.9211C70.9715 54.9211 71.7702 55.2502 72.4286 55.9086C73.087 56.567 73.4161 57.3564 73.4161 58.2774C73.4161 59.1985 73.087 59.9878 72.4286 60.6463C71.7702 61.3043 70.9715 61.6332 70.0316 61.6332C69.0918 61.6332 68.293 61.3043 67.6347 60.6463ZM48.5226 73.3849C49.3999 72.5075 50.4662 72.074 51.7222 72.0841C52.9782 72.0942 54.0445 72.5379 54.9219 73.4153C55.7993 74.2926 56.2358 75.3589 56.2317 76.6149C56.2272 77.8709 55.7864 78.9372 54.909 79.8146C54.1464 80.5768 52.9219 81.2308 51.2341 81.7758C49.55 82.3195 47.6022 82.6954 45.3906 82.9033C45.5986 80.6917 45.9816 78.7442 46.5394 77.0604C47.099 75.3722 47.7603 74.1475 48.5226 73.3849Z" fill="url(#paint2_linear_21_1104)"/>
<path d="M65.2766 83.5354L61.5539 74.7645L61.5548 74.7641L61.5512 74.7605L53.5333 66.7427L53.534 66.742L53.5294 66.74L44.7584 62.9746L52.8842 54.8353C52.8842 54.8353 52.8842 54.8353 52.8842 54.8353C53.3212 54.3983 53.825 54.0893 54.3957 53.908C54.3957 53.908 54.3957 53.908 54.3957 53.908L54.3919 53.8961M65.2766 83.5354L56.1573 53.8178L56.1598 53.8056M65.2766 83.5354L73.4585 75.3967L65.2766 83.5354ZM54.3919 53.8961C54.9645 53.7146 55.5538 53.6844 56.1598 53.8056M54.3919 53.8961C53.8193 54.078 53.3138 54.3881 52.8754 54.8265L54.3919 53.8961ZM56.1598 53.8056L56.1574 53.8178M56.1598 53.8056L60.8629 54.7573C61.0073 54.6133 61.1299 54.4836 61.2308 54.3681C61.3316 54.2526 61.4543 54.1228 61.5986 53.9788C64.6043 50.9728 67.8407 48.7646 71.3079 47.3542L56.1574 53.8178M56.1574 53.8178L60.8604 54.7696L60.8584 54.7794L60.8717 54.7662C61.0162 54.622 61.1391 54.4921 61.2402 54.3763C61.3408 54.2611 61.4632 54.1315 61.6075 53.9877L61.6075 53.9876C64.6121 50.9827 67.8471 48.7755 71.3127 47.3658C74.7749 45.9571 78.57 45.3772 82.698 45.6262M56.1574 53.8178L82.698 45.6262M82.698 45.6262C82.9471 49.7539 82.3621 53.551 80.9432 57.0178C79.5235 60.4878 77.3112 63.7251 74.3062 66.7297L74.3062 66.7297C74.1622 66.8741 74.0325 67.004 73.917 67.1195C73.8015 67.2347 73.6717 67.3644 73.5277 67.5088L73.5207 67.5018L73.5243 67.52L74.4327 72.137L74.4327 72.1371C74.5535 72.7408 74.5305 73.3256 74.3638 73.8917C74.1972 74.4581 73.8955 74.9597 73.4586 75.3967L82.698 45.6262ZM48.6652 62.2297L48.6521 62.2428L48.6692 62.2501L54.1817 64.5822L54.1925 64.5868L54.1978 64.5763C54.8954 63.1805 55.6554 61.8296 56.4775 60.5234C57.2993 59.2169 58.2061 57.9466 59.1981 56.7125L59.2111 56.6963L59.1907 56.6924L55.7384 56.0304C55.5053 55.9722 55.2793 55.9794 55.0607 56.0521L55.0607 56.0521C54.8423 56.1252 54.6461 56.2489 54.4719 56.423L48.6652 62.2297ZM55.9577 65.9937L55.9542 66.0016L55.9603 66.0077L62.3295 72.364L62.3356 72.3701L62.3435 72.3665C64.1213 71.564 65.9105 70.5439 67.7111 69.306C69.5118 68.068 71.243 66.6181 72.9047 64.9564C75.3289 62.5322 77.181 59.9471 78.4608 57.201C79.7411 54.4547 80.4604 51.2835 80.6191 47.6878L80.6197 47.6742L80.6061 47.6748C77.0104 47.8334 73.8443 48.5528 71.108 49.8331C68.372 51.1129 65.792 52.965 63.3679 55.3892C61.7061 57.0509 60.2562 58.7895 59.0182 60.6048C57.7804 62.4195 56.7602 64.2159 55.9577 65.9937ZM66.0438 79.668L66.051 79.6851L66.0642 79.672L71.8708 73.8653C72.045 73.6911 72.1687 73.4949 72.2417 73.2765L72.2417 73.2765C72.3145 73.0579 72.3217 72.8319 72.2635 72.5988C72.2634 72.5987 72.2634 72.5986 72.2634 72.5985L71.6015 69.1465L71.5976 69.1261L71.5814 69.1391C70.3472 70.1311 69.077 71.0359 67.7705 71.8535C66.4643 72.6711 65.1134 73.4288 63.7176 74.1265L63.7071 74.1317L63.7117 74.1425L66.0438 79.668ZM48.1509 80.1595L48.1491 80.1752L48.1648 80.1734C49.2072 80.0521 50.2187 79.7987 51.1992 79.4132C52.1789 79.0278 52.8867 78.6181 53.3213 78.1836C53.7735 77.7313 54.0042 77.1916 54.0129 76.565C54.0216 75.9387 53.7995 75.399 53.3472 74.9467C52.8948 74.4943 52.355 74.2773 51.7286 74.2962C51.1021 74.315 50.5625 74.5508 50.1103 75.003C49.6757 75.4375 49.2711 76.1454 48.8958 77.1251C48.5205 78.1056 48.2722 79.1171 48.1509 80.1595ZM67.6347 60.6463C66.9766 59.9878 66.6478 59.1985 66.6478 58.2774C66.6478 57.3564 66.9766 56.567 67.6347 55.9086C68.293 55.2502 69.0918 54.9211 70.0316 54.9211C70.9715 54.9211 71.7702 55.2502 72.4286 55.9086C73.087 56.567 73.4161 57.3564 73.4161 58.2774C73.4161 59.1985 73.087 59.9878 72.4286 60.6463C71.7702 61.3043 70.9715 61.6332 70.0316 61.6332C69.0918 61.6332 68.293 61.3043 67.6347 60.6463ZM48.5226 73.3849C49.3999 72.5075 50.4662 72.074 51.7222 72.0841C52.9782 72.0942 54.0445 72.5379 54.9219 73.4153C55.7993 74.2926 56.2358 75.3589 56.2317 76.6149C56.2272 77.8709 55.7864 78.9372 54.909 79.8146C54.1464 80.5768 52.9219 81.2308 51.2341 81.7758C49.55 82.3195 47.6022 82.6954 45.3906 82.9033C45.5986 80.6917 45.9816 78.7442 46.5394 77.0604C47.099 75.3722 47.7603 74.1475 48.5226 73.3849Z" stroke="url(#paint3_linear_21_1104)" stroke-width="0.025"/>
</g>
</g>
<defs>
<linearGradient id="paint0_linear_21_1104" x1="-30.7091" y1="105.534" x2="249.453" y2="103.233" gradientUnits="userSpaceOnUse">
<stop offset="0.165016" stop-color="#A9D1FF"/>
<stop offset="0.808399" stop-color="#1E78FF"/>
</linearGradient>
<linearGradient id="paint1_linear_21_1104" x1="24.0446" y1="81.5222" x2="142.238" y2="80.5514" gradientUnits="userSpaceOnUse">
<stop offset="0.165016" stop-color="#A9D1FF"/>
<stop offset="0.808399" stop-color="#1E78FF"/>
</linearGradient>
<linearGradient id="paint2_linear_21_1104" x1="35.6127" y1="76.8878" x2="118.851" y2="76.2035" gradientUnits="userSpaceOnUse">
<stop offset="0.165016" stop-color="#A9D1FF"/>
<stop offset="0.808399" stop-color="#4F95FF"/>
</linearGradient>
<linearGradient id="paint3_linear_21_1104" x1="35.6127" y1="76.8878" x2="118.851" y2="76.2035" gradientUnits="userSpaceOnUse">
<stop offset="0.165016" stop-color="#A9D1FF"/>
<stop offset="0.808399" stop-color="#1E78FF"/>
</linearGradient>
</defs>
</svg>
