<svg width="34" height="16" viewBox="0 0 34 16" fill="none" xmlns="http://www.w3.org/2000/svg">
<path d="M0.921387 14.3701V1.64008C0.921387 1.37423 1.01341 1.14588 1.19746 0.955012C1.38151 0.764146 1.60646 0.668714 1.87231 0.668714H10.3079C11.8689 0.668714 13.147 1.08794 14.1422 1.92638C15.1443 2.76483 15.6453 3.89639 15.6453 5.32106C15.6453 7.3047 14.3604 8.54874 11.7905 9.05317C12.1927 9.20995 12.5676 9.46898 12.9152 9.83027C13.2697 10.1915 13.6719 10.7198 14.1218 11.4151L15.9827 14.3701C16.0986 14.5678 16.1566 14.7382 16.1566 14.8814C16.1566 14.9427 16.1463 15.0007 16.1259 15.0552C16.0577 15.2393 15.8907 15.3313 15.6249 15.3313H13.1709C12.905 15.3313 12.6187 15.2393 12.312 15.0552C12.0052 14.8643 11.7701 14.636 11.6065 14.3701L9.86821 11.6503C9.15928 10.5324 8.29357 9.97341 7.27108 9.97341H4.77619V14.3701C4.77619 14.636 4.68076 14.8643 4.48989 15.0552C4.30584 15.2393 4.08089 15.3313 3.81505 15.3313H1.89276C1.62691 15.3313 1.39855 15.2393 1.20769 15.0552C1.01682 14.8643 0.921387 14.636 0.921387 14.3701ZM4.77619 7.07975H9.13202C9.82731 7.07975 10.4442 6.94001 10.9827 6.66053C11.5212 6.38105 11.7905 5.93456 11.7905 5.32106C11.7905 4.70757 11.5212 4.26108 10.9827 3.9816C10.451 3.70211 9.83413 3.56237 9.13202 3.56237H4.77619V7.07975Z" fill="#E6EDF3"/>
<path d="M16.995 8C16.995 5.47103 17.6255 3.60327 18.8866 2.39673C20.1545 1.19019 22.0529 0.586914 24.5819 0.586914H26.8621C28.3685 0.586914 29.7251 0.948196 30.9316 1.67076C32.145 2.3865 32.7516 3.28289 32.7516 4.35992C32.7516 4.7621 32.6324 5.05181 32.3938 5.22904C32.1552 5.39946 31.9234 5.48466 31.6985 5.48466H30.4817C29.8955 5.48466 29.4354 5.16428 29.1013 4.52352C28.7401 3.82822 27.8743 3.48057 26.5042 3.48057H24.6842C23.1913 3.48057 22.179 3.80096 21.6474 4.44172C21.1157 5.08248 20.8498 6.26858 20.8498 8C20.8498 9.70416 21.0884 10.8868 21.5656 11.5481C22.0427 12.2025 22.8948 12.5297 24.1218 12.5297H26.2179C27.3222 12.5297 28.1061 12.3217 28.5696 11.9059C29.04 11.4833 29.282 10.88 29.2956 10.0961H26.9848C26.7189 10.0961 26.4906 10.0041 26.2997 9.82004C26.1157 9.62917 26.0236 9.40082 26.0236 9.13497V8.33742C26.0236 8.07157 26.1157 7.84663 26.2997 7.66258C26.4906 7.47171 26.7189 7.37628 26.9848 7.37628H32.1177C32.3835 7.37628 32.6085 7.47171 32.7925 7.66258C32.9834 7.84663 33.0788 8.07157 33.0788 8.33742V9.47239C33.0788 11.3879 32.5062 12.8568 31.361 13.8793C30.2159 14.9018 28.5356 15.4131 26.3202 15.4131H24.0195C21.7564 15.4131 20.0182 14.803 18.8048 13.5828C17.5983 12.3626 16.995 10.5017 16.995 8Z" fill="#E6EDF3"/>
</svg>
