<svg width="36" height="36" viewBox="0 0 36 36" fill="none" xmlns="http://www.w3.org/2000/svg">
<mask id="mask0_88_378" style="mask-type:alpha" maskUnits="userSpaceOnUse" x="0" y="0" width="36" height="36">
<rect width="36" height="36" fill="#D9D9D9"/>
</mask>
<g mask="url(#mask0_88_378)">
<path d="M17.9933 32.25C16.0245 32.25 14.1742 31.8755 12.4425 31.1265C10.711 30.3775 9.20363 29.362 7.92038 28.08C6.63713 26.798 5.62125 25.2904 4.87275 23.5571C4.12425 21.8241 3.75 19.9724 3.75 18.0019C3.75 16.0314 4.12412 14.179 4.87237 12.4447C5.62037 10.7105 6.63562 9.202 7.91813 7.91925C9.20062 6.6365 10.7087 5.62087 12.4425 4.87237C14.1762 4.12412 16.0288 3.75 18 3.75C19.58 3.75 21.075 3.9875 22.485 4.4625C23.895 4.9375 25.1885 5.6 26.3655 6.45L24.7384 8.11463C23.7691 7.44713 22.7193 6.92787 21.5888 6.55687C20.4583 6.18562 19.262 6 18 6C14.675 6 11.8438 7.16875 9.50625 9.50625C7.16875 11.8438 6 14.675 6 18C6 21.325 7.16875 24.1562 9.50625 26.4938C11.8438 28.8313 14.675 30 18 30C18.8385 30 19.652 29.9154 20.4405 29.7461C21.229 29.5769 21.9876 29.3404 22.7164 29.0366L24.4039 30.747C23.4366 31.2277 22.4169 31.5985 21.3446 31.8592C20.2726 32.1198 19.1555 32.25 17.9933 32.25ZM28.875 29.625V25.125H24.375V22.875H28.875V18.375H31.125V22.875H35.625V25.125H31.125V29.625H28.875ZM15.8711 24.3806L10.0155 18.525L11.5961 16.9444L15.8711 21.2194L30.6694 6.39825L32.25 7.97888L15.8711 24.3806Z" fill="#E6EDF3"/>
</g>
</svg>
