<svg width="980" height="135" viewBox="0 0 980 135" fill="none" xmlns="http://www.w3.org/2000/svg">
<g opacity="0.5">
<path d="M0.864751 103.473L0.000370427 12.8949C-0.0176809 11.0033 0.624014 9.37226 1.92545 8.00174C3.2269 6.63122 4.82691 5.93697 6.72548 5.91899L66.9689 5.34831C78.1169 5.24271 87.2732 8.13914 94.4376 14.0376C101.651 19.9356 105.306 27.9531 105.402 38.0901C105.537 52.2043 96.4451 61.1429 78.1264 64.9059C81.0092 65.9942 83.7043 67.812 86.2116 70.3591C88.7676 72.9057 91.6757 76.6374 94.9359 81.5542L108.427 102.454C109.268 103.853 109.693 105.061 109.703 106.08C109.707 106.517 109.638 106.93 109.495 107.319C109.021 108.633 107.835 109.299 105.936 109.317L88.4107 109.483C86.5121 109.501 84.4612 108.866 82.2581 107.577C80.0544 106.24 78.3594 104.631 77.173 102.75L64.5746 83.5153C59.4358 75.6089 53.2153 71.6903 45.913 71.7595L28.0956 71.9282L28.3941 103.212C28.4122 105.104 27.7462 106.735 26.396 108.106C25.0941 109.428 23.4939 110.098 21.5953 110.116L7.86713 110.246C5.96855 110.264 4.33147 109.625 2.95589 108.328C1.57985 106.983 0.882802 105.365 0.864751 103.473ZM27.8991 51.339L59.0066 51.0443C63.9721 50.9973 68.3683 49.9612 72.1952 47.9362C76.022 45.9112 77.9146 42.7161 77.873 38.3509C77.8313 33.9856 75.8781 30.827 72.0133 28.8748C68.1971 26.9222 63.782 25.9696 58.7678 26.0171L27.6603 26.3118L27.8991 51.339Z" fill="#98A1B0"/>
<path d="M125.566 100.109C117.905 93.1965 114.01 82.95 113.88 69.3694C113.75 55.7402 117.449 45.4217 124.977 38.414C132.505 31.3577 143.376 27.7622 157.591 27.6276C171.855 27.4925 182.817 30.8811 190.478 37.7935C198.139 44.6574 202.034 54.9039 202.164 68.5331C202.294 82.1137 198.595 92.4322 191.067 99.4885C183.539 106.545 172.644 110.14 158.38 110.276C144.165 110.41 133.227 107.021 125.566 100.109ZM143.566 50.1705C140.585 54.1278 139.136 60.4232 139.218 69.0566C139.301 77.69 140.87 83.981 143.926 87.9296C146.982 91.8782 151.748 93.8218 158.222 93.7605C164.746 93.6987 169.497 91.6649 172.478 87.6591C175.507 83.6529 176.98 77.3331 176.898 68.6997C176.815 60.0662 175.222 53.7997 172.117 49.9001C169.062 46 164.272 44.0808 157.749 44.1426C151.274 44.204 146.546 46.2133 143.566 50.1705Z" fill="#98A1B0"/>
<path d="M205.841 32.9913C205.692 32.6047 205.615 32.2416 205.612 31.9021C205.605 31.2231 205.843 30.5902 206.324 30.0036C207.046 29.1236 208.015 28.6536 209.232 28.5936L224.493 28.449C225.905 28.4356 227.249 28.908 228.524 29.866C229.847 30.7751 230.71 31.9311 231.113 33.334L240.973 64.0909C243.431 71.6346 245.89 76.8501 248.352 79.7372C250.863 82.6238 253.797 84.0512 257.156 84.0194L271.202 32.9542C271.578 31.544 272.321 30.3728 273.432 29.4406C274.591 28.4595 275.877 27.9623 277.289 27.9489L292.696 27.8029C293.913 27.7914 294.867 28.2432 295.557 29.1583C296.05 29.7842 296.3 30.4609 296.307 31.1885C296.31 31.4795 296.264 31.7952 296.17 32.1356L277.687 100.269C274.394 112.33 270.24 120.955 265.227 126.144C260.261 131.333 253.544 133.967 245.073 134.047C237.673 134.117 231.34 133.692 226.073 132.772C224.757 132.59 223.681 132.067 222.845 131.202C222.01 130.385 221.587 129.419 221.576 128.303L221.499 120.301C221.487 118.991 221.89 117.896 222.71 117.015C223.529 116.183 224.596 115.76 225.911 115.748L228.613 115.722C229.732 115.712 231.292 115.891 233.292 116.26C235.34 116.677 236.973 116.88 238.19 116.868C245.054 116.803 249.802 111.738 252.432 101.672C244.156 101.75 237.22 99.3423 231.623 94.4476C226.025 89.5045 221.17 80.698 217.057 68.0282L205.841 32.9913Z" fill="#98A1B0"/>
<path d="M311.079 102.135C304.61 97.7338 301.337 91.4589 301.259 83.3105C301.181 75.1621 304.335 68.8749 310.719 64.4488C317.152 60.0223 325.456 57.7608 335.63 57.6644L359.8 57.4355C359.746 51.7607 358.516 47.8191 356.109 45.6105C353.703 43.402 349.919 42.3222 344.759 42.3711C337.992 42.4352 333.261 44.1292 330.567 47.4532C328.498 50.0437 325.711 51.3555 322.206 51.3887L311.326 51.4918C310.011 51.5042 308.912 51.1023 308.028 50.2861C307.192 49.4209 306.768 48.3578 306.756 47.0967C306.623 33.1765 319.822 26.0908 346.354 25.8395C357.94 25.7297 367.263 28.2365 374.323 33.3598C381.382 38.4347 384.963 46.3801 385.066 57.1961L385.496 102.231C385.508 103.54 385.105 104.611 384.285 105.443C383.465 106.276 382.398 106.698 381.084 106.711L366.991 106.844C365.676 106.857 364.601 106.455 363.766 105.638C362.93 104.773 362.506 103.71 362.494 102.448L362.472 100.193C354.833 105.747 346.048 108.546 336.116 108.592C325.942 108.688 317.596 106.536 311.079 102.135ZM326.598 83.0705C326.623 85.7381 327.667 87.9111 329.727 89.5893C331.788 91.2675 334.693 92.0888 338.441 92.0533C345.938 91.9823 353.147 89.7312 360.066 85.3001L359.958 73.9505L337.54 74.1629C334.133 74.1952 331.439 75.0453 329.458 76.7133C327.527 78.3808 326.573 80.4999 326.598 83.0705Z" fill="#98A1B0"/>
<path d="M403.532 102.06L402.622 6.67986C402.61 5.3703 403.013 4.29932 403.833 3.46694C404.701 2.5856 405.768 2.13894 407.034 2.12695L423.391 1.972C424.705 1.95955 425.78 2.38592 426.616 3.25113C427.451 4.06783 427.875 5.13096 427.888 6.44052L428.798 101.82C428.811 103.13 428.383 104.201 427.514 105.034C426.695 105.866 425.652 106.289 424.386 106.301L408.029 106.455C406.715 106.468 405.64 106.066 404.804 105.249C403.969 104.432 403.545 103.369 403.532 102.06Z" fill="#98A1B0"/>
<path d="M494.063 53.4715C493.891 35.4771 498.267 22.1448 507.191 13.4746C516.164 4.80394 529.681 0.383048 547.742 0.211961L564.026 0.0577059C574.784 -0.0442084 584.497 2.43465 593.162 7.49427C601.876 12.5049 606.27 18.8419 606.343 26.5053C606.37 29.367 605.538 31.4364 603.846 32.7136C602.154 33.9423 600.504 34.5642 598.898 34.5795L590.208 34.6618C586.022 34.7014 582.714 32.4529 580.285 27.9163C577.658 22.9935 571.452 20.5785 561.667 20.6712L548.669 20.7943C538.007 20.8953 530.8 23.2434 527.046 27.8386C523.293 32.4337 521.475 40.8911 521.592 53.2107C521.708 65.3363 523.492 73.7353 526.945 78.4078C530.397 83.0317 536.504 85.3022 545.267 85.2192L560.236 85.0774C568.123 85.0027 573.707 83.4703 576.989 80.4803C580.319 77.4414 582.007 73.1325 582.051 67.5538L565.548 67.7102C563.649 67.7281 562.012 67.0888 560.637 65.7922C559.309 64.4466 558.636 62.828 558.618 60.9364L558.564 55.2616C558.546 53.37 559.188 51.7632 560.49 50.4412C561.84 49.0702 563.465 48.3757 565.363 48.3577L602.02 48.0105C603.919 47.9925 605.532 48.6563 606.859 50.0019C608.235 51.2986 608.932 52.8927 608.95 54.7843L609.027 62.8599C609.157 76.4891 605.167 86.9801 597.058 94.3329C588.949 101.686 576.984 105.437 561.162 105.587L544.732 105.743C528.57 105.896 516.115 101.672 507.367 93.0725C498.667 84.4722 494.233 71.2719 494.063 53.4715Z" fill="#98A1B0"/>
<path d="M622.891 99.9818L622.216 29.1926C622.203 27.883 622.607 26.8121 623.427 25.9797C624.295 25.0983 625.361 24.6517 626.627 24.6397L642.984 24.4847C644.299 24.4723 645.374 24.8987 646.21 25.7639C647.045 26.5806 647.469 27.6437 647.482 28.9533L647.525 33.5367C652.457 29.9005 657.202 27.212 661.762 25.471C666.37 23.6811 672.398 22.7509 679.846 22.6803C681.161 22.6679 682.236 23.0943 683.072 23.9595C683.956 24.7757 684.404 25.8144 684.416 27.0754L684.522 38.134C684.534 39.4435 684.106 40.5147 683.238 41.3476C682.418 42.1799 681.351 42.6024 680.037 42.6148L677.7 42.6369C676.58 42.6475 674.754 42.5921 672.221 42.4706C669.688 42.349 667.765 42.2945 666.45 42.3069C659.878 42.3692 653.633 46.0179 647.713 53.2529L648.157 99.7424C648.17 101.052 647.742 102.123 646.873 102.956C646.054 103.788 645.011 104.211 643.745 104.223L627.388 104.378C626.074 104.39 624.999 103.988 624.163 103.171C623.328 102.354 622.904 101.291 622.891 99.9818Z" fill="#98A1B0"/>
<path d="M702.442 94.6443C694.781 87.7319 690.886 77.4854 690.756 63.9047C690.626 50.2756 694.325 39.9571 701.853 32.9493C709.381 25.8931 720.252 22.2976 734.467 22.1629C748.731 22.0278 759.693 25.4165 767.354 32.3289C775.015 39.1927 778.91 49.4393 779.04 63.0684C779.17 76.6491 775.471 86.9676 767.943 94.0238C760.415 101.08 749.52 104.676 735.256 104.811C721.041 104.946 710.103 101.557 702.442 94.6443ZM720.442 44.7059C717.461 48.6632 716.012 54.9585 716.094 63.5919C716.176 72.2254 717.746 78.5164 720.802 82.465C723.858 86.4136 728.624 88.3572 735.098 88.2959C741.622 88.2341 746.373 86.2003 749.354 82.1945C752.383 78.1883 753.856 71.8684 753.774 63.235C753.691 54.6016 752.098 48.3351 748.993 44.4354C745.938 40.5353 741.148 38.6162 734.625 38.678C728.15 38.7393 723.422 40.7486 720.442 44.7059Z" fill="#98A1B0"/>
<path d="M792.609 69.27L792.212 27.5823C792.199 26.2727 792.603 25.2017 793.422 24.3693C794.29 23.488 795.357 23.0413 796.623 23.0293L812.98 22.8744C814.294 22.8619 815.369 23.2883 816.205 24.1535C817.041 24.9702 817.465 26.0334 817.477 27.3429L817.875 69.0307C817.986 80.6712 822.667 86.4477 831.916 86.3601C838.001 86.3025 844.516 82.7483 851.459 75.6975L850.995 27.0254C850.982 25.7159 851.386 24.6449 852.205 23.8125C853.073 22.9312 854.14 22.4845 855.406 22.4725L871.69 22.3183C873.004 22.3058 874.079 22.7322 874.915 23.5974C875.799 24.4136 876.248 25.4765 876.26 26.7861L876.936 97.5752C876.948 98.8848 876.52 99.956 875.652 100.789C874.832 101.621 873.765 102.044 872.451 102.056L856.167 102.21C854.852 102.223 853.777 101.821 852.942 101.004C852.106 100.139 851.682 99.0756 851.67 97.8146L851.626 93.1584C843.32 100.271 834.834 103.868 826.169 103.95C815.897 104.047 807.764 101.262 801.77 95.5952C795.776 89.8796 792.722 81.1046 792.609 69.27Z" fill="#98A1B0"/>
<path d="M895.06 121.924L894.151 26.6166C894.138 25.307 894.542 24.2361 895.362 23.4037C896.229 22.5224 897.296 22.0757 898.562 22.0637L912.655 21.9302C913.97 21.9177 915.045 22.3441 915.881 23.2093C916.716 24.026 917.14 25.0892 917.153 26.3987L917.174 28.5813C924.813 23.0277 933.306 20.2309 942.654 20.1908C953.607 20.0871 962.526 23.5921 969.409 30.7059C976.342 37.7707 979.871 47.8994 979.997 61.092C980.124 74.4787 976.693 84.7704 969.702 91.9671C962.711 99.1153 953.227 102.746 941.252 102.86C935.069 102.918 928.023 101.748 920.113 99.349L920.326 121.684C920.338 122.994 919.91 124.065 919.042 124.898C918.223 125.779 917.18 126.225 915.915 126.237L899.558 126.392C898.243 126.405 897.168 125.978 896.332 125.113C895.497 124.296 895.073 123.233 895.06 121.924ZM919.952 82.543C926.251 84.4721 931.543 85.4164 935.827 85.3758C942.496 85.3126 947.2 83.3763 949.939 79.5668C952.726 75.7569 954.08 69.6807 954.001 61.3383C953.922 53.0929 952.526 47.1155 949.813 43.4062C947.148 39.6479 942.846 37.7969 936.907 37.8532C932.331 37.8966 926.558 40.134 919.59 44.5657L919.952 82.543Z" fill="#98A1B0"/>
</g>
</svg>
