<svg xmlns="http://www.w3.org/2000/svg" version="1.1" xmlns:xlink="http://www.w3.org/1999/xlink" xmlns:svgjs="http://svgjs.dev/svgjs" width="1500" height="1500" viewBox="0 0 1500 1500"><rect width="1500" height="1500" fill="#ffffff"></rect><g transform="matrix(0.6666666666666666,0,0,0.6666666666666666,249.39393939393938,515.5523248989361)"><svg viewBox="0 0 396 186" data-background-color="#ffffff" preserveAspectRatio="xMidYMid meet" height="704" width="1500" xmlns="http://www.w3.org/2000/svg" xmlns:xlink="http://www.w3.org/1999/xlink"><g id="tight-bounds" transform="matrix(1,0,0,1,0.2400000000000091,-0.08678785057266225)"><svg viewBox="0 0 395.52 186.17357570114532" height="186.17357570114532" width="395.52"><g><svg viewBox="0 0 395.52000000000004 186.17357570114535" height="186.17357570114532" width="395.52"><g transform="matrix(1,0,0,1,0,115.06273869674007)"><svg viewBox="0 0 395.52000000000004 71.11083700440527" height="71.11083700440527" width="395.52000000000004"><g id="textblocktransform"><svg viewBox="0 0 395.52000000000004 71.11083700440527" height="71.11083700440527" width="395.52000000000004" id="textblock"><g><svg viewBox="0 0 395.52000000000004 71.11083700440527" height="71.11083700440527" width="395.52000000000004"><g transform="matrix(1,0,0,1,0,0)"><svg width="395.52000000000004" viewBox="2.58 -31.1 181.57999999999998 32.650000000000006" height="71.11083700440527" data-palette-color="#264f0b"><path d="M5.8 0.33L5.8 0.33Q4.15 0.33 3.36-0.88 2.58-2.08 2.58-3.98L2.58-3.98Q2.58-4.78 2.58-6.23 2.58-7.68 2.6-9.55 2.63-11.43 2.66-13.53 2.7-15.63 2.76-17.75 2.83-19.88 2.93-21.8 3.03-23.73 3.15-25.23L3.15-25.23Q3.43-27.65 4.13-28.65 4.83-29.65 6.4-29.65L6.4-29.65Q7.73-29.65 8.33-28.64 8.93-27.63 9.1-25.88L9.1-25.88Q9.15-24.8 9.2-23.18 9.25-21.55 9.28-19.63 9.3-17.7 9.31-15.69 9.33-13.68 9.33-11.81 9.33-9.95 9.33-8.44 9.33-6.93 9.3-6.03L9.3-6.03Q9.3-3.65 8.97-2.26 8.65-0.88 7.91-0.28 7.18 0.33 5.8 0.33ZM27.25 1.15L27.25 1.15Q25.87 1.15 25.17 0.24 24.47-0.68 24.32-2.7L24.32-2.7Q24.3-3.53 24.29-4.91 24.27-6.3 24.3-8.04 24.32-9.78 24.36-11.66 24.4-13.55 24.44-15.39 24.47-17.23 24.49-18.81 24.5-20.4 24.5-21.53L24.5-21.53Q24.5-23.03 24.09-23.53 23.67-24.03 22.22-24.03L22.22-24.03Q20.67-24.03 19.11-23.79 17.55-23.55 16.02-23.55L16.02-23.55Q15.27-23.55 14.67-23.83 14.07-24.1 13.74-24.64 13.4-25.18 13.4-25.95L13.4-25.95Q13.4-26.85 14.31-27.53 15.22-28.2 16.85-28.66 18.47-29.13 20.67-29.41 22.87-29.7 25.47-29.83 28.07-29.95 30.87-29.95L30.87-29.95Q32.7-29.95 34.46-29.88 36.22-29.8 37.79-29.6 39.35-29.4 40.54-29 41.72-28.6 42.4-27.96 43.07-27.33 43.07-26.38L43.07-26.38Q43.07-25.5 42.71-24.93 42.35-24.35 41.67-24.06 41-23.78 40-23.78L40-23.78Q38.7-23.78 37.77-23.86 36.85-23.95 35.6-23.95L35.6-23.95Q33.75-23.95 32.9-23.66 32.05-23.38 31.82-22.56 31.6-21.75 31.55-20.13L31.55-20.13Q31.52-19.05 31.46-17.82 31.4-16.6 31.32-15.25 31.25-13.9 31.14-12.51 31.02-11.13 30.91-9.76 30.8-8.4 30.69-7.11 30.57-5.83 30.45-4.7 30.32-3.58 30.22-2.65L30.22-2.65Q29.92-1.23 29.59-0.39 29.25 0.45 28.71 0.8 28.17 1.15 27.25 1.15ZM91.72 1L91.72 1Q90.69 1 89.96 0.49 89.22-0.03 88.64-1.05L88.64-1.05Q88.42-1.73 88.14-2.64 87.87-3.55 87.61-4.5 87.34-5.45 87.07-6.31 86.79-7.18 86.52-7.75L86.52-7.75Q86.17-8.55 85.66-8.93 85.14-9.3 84.14-9.45L84.14-9.45Q83.64-9.5 82.63-9.59 81.62-9.68 80.42-9.74 79.22-9.8 78.17-9.8L78.17-9.8Q76.57-9.8 74.92-9.73 73.27-9.65 72.07-9.53L72.07-9.53Q71.04-9.43 70.53-9.11 70.02-8.8 69.69-8.03L69.69-8.03Q69.37-7.3 69.02-6.28 68.67-5.25 68.32-4.13 67.97-3 67.62-1.93L67.62-1.93Q67.09-0.73 66.36-0.11 65.62 0.5 64.32 0.5L64.32 0.5Q63.32 0.5 62.64 0.18 61.97-0.15 61.64-0.9 61.32-1.65 61.32-2.88L61.32-2.88Q61.32-4.03 61.64-5.64 61.97-7.25 62.53-9.13 63.09-11 63.78-12.93 64.47-14.85 65.18-16.64 65.89-18.43 66.54-19.86 67.19-21.3 67.67-22.15L67.67-22.15Q68.52-23.73 69.61-25.18 70.69-26.63 72.03-27.76 73.37-28.9 74.97-29.56 76.57-30.23 78.49-30.23L78.49-30.23Q81.59-30.23 84.08-28.35 86.57-26.48 88.49-23.38L88.49-23.38Q89.22-22.33 89.96-20.66 90.69-19 91.42-16.99 92.14-14.98 92.77-12.83 93.39-10.68 93.88-8.6 94.37-6.53 94.63-4.78 94.89-3.03 94.89-1.83L94.89-1.83Q94.89-0.28 94.04 0.36 93.19 1 91.72 1ZM84.47-13.78L84.47-13.78Q85.02-13.88 85.19-14.2 85.37-14.53 85.37-15.23L85.37-15.23Q85.37-16 85.11-17.14 84.84-18.28 84.39-19.54 83.94-20.8 83.34-21.9L83.34-21.9Q82.49-23.53 81.34-24.61 80.19-25.7 78.87-25.7L78.87-25.7Q77.42-25.7 76.11-24.56 74.79-23.43 73.79-21.68L73.79-21.68Q73.37-20.98 72.92-20.08 72.47-19.18 72.09-18.23 71.72-17.28 71.48-16.44 71.24-15.6 71.24-15.03L71.24-15.03Q71.24-14.28 71.84-13.99 72.44-13.7 73.77-13.7L73.77-13.7Q76.57-13.7 78.62-13.7 80.67-13.7 82.11-13.7 83.54-13.7 84.47-13.78ZM104.17 0.83L104.17 0.83Q100.92 0.13 99.73-2.45 98.54-5.03 98.54-9.3L98.54-9.3Q98.54-10.53 98.6-12.11 98.67-13.7 98.79-15.43 98.92-17.15 99.07-18.8 99.22-20.45 99.37-21.83 99.52-23.2 99.64-24.05L99.64-24.05Q100.14-27.38 101.12-28.88 102.09-30.38 103.77-30.38L103.77-30.38Q104.84-30.38 105.37-29.91 105.89-29.45 106.07-28.6 106.24-27.75 106.24-26.58L106.24-26.58Q106.24-25.8 106.19-24.76 106.14-23.73 106.09-22.55 106.04-21.38 105.99-20.09 105.94-18.8 105.89-17.53 105.84-16.25 105.83-15.04 105.82-13.83 105.84-12.75L105.84-12.75Q105.89-10.63 106.1-9.2 106.32-7.78 106.94-6.96 107.57-6.15 108.78-5.79 109.99-5.43 112.04-5.4L112.04-5.4Q113.82-5.33 115.4-5.26 116.99-5.2 118.02-5.13L118.02-5.13Q119.52-5.23 120.47-5.21 121.42-5.2 121.89-5.03L121.89-5.03Q122.29-4.83 122.48-4.46 122.67-4.1 122.67-3.45L122.67-3.45Q122.67-2.4 122.02-1.68 121.37-0.95 120.2-0.45 119.04 0.05 117.52 0.43L117.52 0.43Q115.92 0.8 113.82 1.03 111.72 1.25 109.64 1.25L109.64 1.25Q108.82 1.25 107.8 1.21 106.79 1.18 105.83 1.07 104.87 0.98 104.17 0.83ZM136.59 1.55L136.59 1.55Q133.41 1.55 131.24 0.4 129.06-0.75 127.88-3.08 126.69-5.4 126.31-8.95L126.31-8.95Q126.21-9.8 126.16-10.71 126.11-11.63 126.08-12.61 126.04-13.6 126.04-14.65 126.04-15.7 126.04-16.8L126.04-16.8Q126.04-21.08 126.86-23.86 127.69-26.65 129.45-28.23 131.21-29.8 133.98-30.45 136.74-31.1 140.56-31.1L140.56-31.1Q142.44-31.1 144.15-30.94 145.86-30.78 147.19-30.45 148.51-30.13 149.28-29.64 150.04-29.15 150.04-28.48L150.04-28.48Q150.04-27.78 149.63-27.36 149.21-26.95 148.56-26.83L148.56-26.83Q147.79-26.73 146.51-26.79 145.24-26.85 143.71-26.93 142.19-27 140.61-27L140.61-27Q138.36-27 136.84-26.66 135.31-26.33 134.39-25.55 133.46-24.78 133.06-23.45 132.66-22.13 132.66-20.18L132.66-20.18Q132.66-19.18 132.93-18.66 133.19-18.15 134.16-17.99 135.14-17.82 137.29-17.82L137.29-17.82Q137.81-17.82 138.59-17.84 139.36-17.85 140.2-17.88 141.04-17.9 141.78-17.9 142.51-17.9 142.94-17.9L142.94-17.9Q144.81-17.9 145.54-17.43 146.26-16.95 146.26-16.03L146.26-16.03Q146.26-14.7 145.4-14.21 144.54-13.73 143.11-13.73L143.11-13.73Q142.49-13.73 141.74-13.73 140.99-13.73 140.18-13.71 139.36-13.7 138.61-13.7 137.86-13.7 137.26-13.7L137.26-13.7Q135.04-13.7 133.96-13.56 132.89-13.43 132.58-12.96 132.26-12.5 132.26-11.5L132.26-11.5Q132.26-9.85 132.41-8.54 132.56-7.23 132.94-6.26 133.31-5.3 134-4.67 134.69-4.05 135.76-3.74 136.84-3.43 138.36-3.43L138.36-3.43Q140.26-3.43 142.09-3.55 143.91-3.68 145.39-3.79 146.86-3.9 147.69-3.9L147.69-3.9Q148.81-3.9 149.34-3.44 149.86-2.98 149.86-2.08L149.86-2.08Q149.86-1.07 148.63-0.38 147.39 0.33 145.4 0.75 143.41 1.18 141.09 1.36 138.76 1.55 136.59 1.55ZM155.94 0.65L155.94 0.65Q155.04 0.65 154.36 0.33 153.69 0 153.3-0.61 152.91-1.23 152.91-2.08L152.91-2.08Q152.91-2.95 153.22-3.61 153.54-4.28 154.09-4.88L154.09-4.88Q154.54-5.38 155.46-6.36 156.39-7.35 157.55-8.54 158.71-9.73 159.87-10.89 161.04-12.05 161.96-12.9L161.96-12.9Q163.16-13.83 163.85-14.51 164.54-15.2 164.54-15.6L164.54-15.6Q164.54-16 164.16-16.53 163.79-17.05 162.69-17.8L162.69-17.8Q161.89-18.43 160.84-19.29 159.79-20.15 158.69-21.05 157.59-21.95 156.61-22.76 155.64-23.58 154.94-24.1L154.94-24.1Q154.26-24.6 153.87-25.31 153.49-26.03 153.49-26.85L153.49-26.85Q153.49-27.93 153.95-28.58 154.41-29.23 155.11-29.51 155.81-29.8 156.51-29.8L156.51-29.8Q157.56-29.8 158.36-29.41 159.16-29.03 159.96-28.25L159.96-28.25Q160.89-27.43 162.01-26.26 163.14-25.1 164.31-23.78 165.49-22.45 166.59-21.1L166.59-21.1Q167.36-20.08 167.9-19.51 168.44-18.95 168.89-18.95L168.89-18.95Q169.26-18.95 169.65-19.3 170.04-19.65 170.51-20.25L170.51-20.25Q171.06-20.9 171.77-21.86 172.49-22.83 173.27-23.9 174.06-24.98 174.8-25.99 175.54-27 176.11-27.78L176.11-27.78Q177.04-29 177.94-29.53 178.84-30.05 179.84-30.05L179.84-30.05Q181.34-30.05 181.94-29.35 182.54-28.65 182.54-27.6L182.54-27.6Q182.54-26.93 182.19-26.11 181.84-25.3 181.06-24.38L181.06-24.38Q180.34-23.4 179.3-22.16 178.26-20.93 177.16-19.74 176.06-18.55 175.09-17.65L175.09-17.65Q174.04-16.8 173.56-16.3 173.09-15.8 173.09-15.53L173.09-15.53Q173.09-15.23 173.45-14.86 173.81-14.5 174.46-13.95L174.46-13.95Q176.71-12 178.41-10.24 180.11-8.47 181.36-6.95 182.61-5.43 183.49-4.15L183.49-4.15Q183.86-3.68 184.01-3.13 184.16-2.58 184.16-2.13L184.16-2.13Q184.16-1.4 183.71-0.84 183.26-0.28 182.57 0.05 181.89 0.38 181.14 0.38L181.14 0.38Q180.19 0.38 179.5 0.05 178.81-0.28 178.24-0.88L178.24-0.88Q177.61-1.58 176.71-2.76 175.81-3.95 174.82-5.26 173.84-6.58 172.95-7.75 172.06-8.93 171.44-9.63L171.44-9.63Q170.61-10.68 170.05-11.15 169.49-11.63 169.06-11.63L169.06-11.63Q168.64-11.63 168.05-11.08 167.46-10.53 166.54-9.33L166.54-9.33Q165.31-7.83 164.36-6.69 163.41-5.55 162.59-4.58 161.76-3.6 160.86-2.59 159.96-1.58 158.79-0.3L158.79-0.3Q158.31 0.1 157.64 0.38 156.96 0.65 155.94 0.65Z" opacity="1" transform="matrix(1,0,0,1,0,0)" fill="#264f0b" class="wordmark-text-0" data-fill-palette-color="primary" id="text-0"></path></svg></g></svg></g></svg></g></svg></g><g transform="matrix(1,0,0,1,148.622411629956,0)"><svg viewBox="0 0 98.27517674008809 98.27517674008809" height="98.27517674008809" width="98.27517674008809"><g><svg xmlns="http://www.w3.org/2000/svg" xmlns:xlink="http://www.w3.org/1999/xlink" version="1.1" x="0" y="0" viewBox="7.261 6.964 75.477 75.477" enable-background="new 0 0 90 90" xml:space="preserve" height="98.27517674008809" width="98.27517674008809" class="icon-icon-0" data-fill-palette-color="accent" id="icon-0"><g fill="#fc6c22" data-fill-palette-color="accent"><polygon points="43.583,37.298 32.386,9.106 29.752,10.152 41.15,38.849 43.583,41.282  " fill="#fc6c22" data-fill-palette-color="accent"></polygon><polygon points="46.418,52.112 57.613,80.299 60.247,79.252 48.85,50.556 46.418,48.125  " fill="#fc6c22" data-fill-palette-color="accent"></polygon><polygon points="37.596,46.119 9.403,57.317 10.45,59.951 39.146,48.554 41.58,46.119  " fill="#fc6c22" data-fill-palette-color="accent"></polygon><polygon points="52.409,43.286 80.598,32.09 79.551,29.455 50.855,40.853 48.422,43.286  " fill="#fc6c22" data-fill-palette-color="accent"></polygon><polygon points="38.762,40.468 10.91,28.452 9.788,31.053 38.139,43.286 41.579,43.286  " fill="#fc6c22" data-fill-palette-color="accent"></polygon><polygon points="51.239,48.938 79.089,60.954 80.212,58.352 51.861,46.12 48.421,46.12  " fill="#fc6c22" data-fill-palette-color="accent"></polygon><polygon points="49.236,38.463 61.252,10.613 58.649,9.49 46.418,37.841 46.418,41.281  " fill="#fc6c22" data-fill-palette-color="accent"></polygon><polygon points="40.765,50.943 28.75,78.793 31.352,79.916 43.583,51.565 43.583,48.125  " fill="#fc6c22" data-fill-palette-color="accent"></polygon><polygon points="48.85,50.556 70.683,72.39 72.687,70.386 51.239,48.938 47.579,47.359  " fill="#fc6c22" data-fill-palette-color="accent"></polygon><polygon points="41.15,38.849 19.316,17.015 17.313,19.019 38.762,40.468 42.42,42.046  " fill="#fc6c22" data-fill-palette-color="accent"></polygon><polygon points="43.583,42.548 42.42,42.046 42.913,43.286 43.583,43.286  " fill="#fc6c22" data-fill-palette-color="accent"></polygon><polygon points="46.418,46.857 47.579,47.359 47.087,46.119 46.418,46.119  " fill="#fc6c22" data-fill-palette-color="accent"></polygon><polygon points="50.855,40.853 72.688,19.02 70.684,17.016 49.236,38.463 47.657,42.123  " fill="#fc6c22" data-fill-palette-color="accent"></polygon><polygon points="39.146,48.554 17.313,70.387 19.317,72.391 40.765,50.943 42.344,47.283  " fill="#fc6c22" data-fill-palette-color="accent"></polygon><polygon points="47.155,43.286 47.657,42.123 46.418,42.615 46.418,43.286  " fill="#fc6c22" data-fill-palette-color="accent"></polygon><polygon points="42.846,46.119 42.344,47.283 43.583,46.791 43.583,46.119  " fill="#fc6c22" data-fill-palette-color="accent"></polygon><polygon points="82.738,43.286 52.409,43.286 48.704,44.757 51.861,46.12 82.738,46.12  " fill="#fc6c22" data-fill-palette-color="accent"></polygon><polygon points="38.139,43.286 7.261,43.286 7.261,46.119 37.596,46.119 41.298,44.649  " fill="#fc6c22" data-fill-palette-color="accent"></polygon><polygon points="42.475,44.182 41.298,44.649 42.522,45.177 42.997,44.703  " fill="#fc6c22" data-fill-palette-color="accent"></polygon><polygon points="47.005,44.704 47.526,45.225 48.704,44.757 47.479,44.229  " fill="#fc6c22" data-fill-palette-color="accent"></polygon><polygon points="42.913,43.286 41.579,43.286 42.475,44.182 43.16,43.909  " fill="#fc6c22" data-fill-palette-color="accent"></polygon><polygon points="47.087,46.119 48.421,46.12 47.526,45.225 46.84,45.498  " fill="#fc6c22" data-fill-palette-color="accent"></polygon><polygon points="43.583,43.741 43.16,43.909 43.339,44.36 43.583,44.116  " fill="#fc6c22" data-fill-palette-color="accent"></polygon><polygon points="46.418,45.666 46.84,45.498 46.661,45.047 46.418,45.29  " fill="#fc6c22" data-fill-palette-color="accent"></polygon><polygon points="42.522,45.177 41.58,46.119 42.846,46.119 43.138,45.443  " fill="#fc6c22" data-fill-palette-color="accent"></polygon><polygon points="47.479,44.229 48.422,43.286 47.155,43.286 46.863,43.963  " fill="#fc6c22" data-fill-palette-color="accent"></polygon><polygon points="43.318,45.025 43.138,45.443 43.583,45.635 43.583,45.29  " fill="#fc6c22" data-fill-palette-color="accent"></polygon><polygon points="46.683,44.382 46.863,43.963 46.418,43.771 46.418,44.117  " fill="#fc6c22" data-fill-palette-color="accent"></polygon><polygon points="46.534,44.727 46.661,45.047 47.005,44.704 46.683,44.382  " fill="#fc6c22" data-fill-palette-color="accent"></polygon><polygon points="43.339,44.36 42.997,44.703 43.318,45.025 43.467,44.681  " fill="#fc6c22" data-fill-palette-color="accent"></polygon><polygon points="46.418,44.996 46.534,44.727 46.418,44.435  " fill="#fc6c22" data-fill-palette-color="accent"></polygon><polygon points="43.467,44.681 43.583,44.976 43.583,44.41  " fill="#fc6c22" data-fill-palette-color="accent"></polygon><polygon points="46.418,37.841 46.418,6.964 43.583,6.964 43.583,37.298 45.054,41.001  " fill="#fc6c22" data-fill-palette-color="accent"></polygon><polygon points="43.583,51.565 43.583,82.441 46.418,82.441 46.418,52.112 44.946,48.407  " fill="#fc6c22" data-fill-palette-color="accent"></polygon><polygon points="45.521,42.178 45.054,41.001 44.526,42.225 45,42.699  " fill="#fc6c22" data-fill-palette-color="accent"></polygon><polygon points="44.479,47.229 44.946,48.407 45.475,47.182 45.001,46.707  " fill="#fc6c22" data-fill-palette-color="accent"></polygon><polygon points="44.526,42.225 43.583,41.282 43.583,42.548 44.261,42.841  " fill="#fc6c22" data-fill-palette-color="accent"></polygon><polygon points="45.475,47.182 46.418,48.125 46.418,46.857 45.741,46.565  " fill="#fc6c22" data-fill-palette-color="accent"></polygon><polygon points="45.323,46.386 45.741,46.565 45.933,46.119 45.589,46.119  " fill="#fc6c22" data-fill-palette-color="accent"></polygon><polygon points="44.679,43.021 44.261,42.841 44.069,43.286 44.414,43.286  " fill="#fc6c22" data-fill-palette-color="accent"></polygon><polygon points="43.583,46.791 43.583,48.125 44.479,47.229 44.207,46.544  " fill="#fc6c22" data-fill-palette-color="accent"></polygon><polygon points="46.418,42.615 46.418,41.281 45.521,42.178 45.794,42.863  " fill="#fc6c22" data-fill-palette-color="accent"></polygon><polygon points="44.038,46.119 44.207,46.544 44.658,46.364 44.413,46.119  " fill="#fc6c22" data-fill-palette-color="accent"></polygon><polygon points="45.962,43.286 45.794,42.863 45.343,43.042 45.587,43.286  " fill="#fc6c22" data-fill-palette-color="accent"></polygon><polygon points="44.658,46.364 45.001,46.707 45.323,46.386 44.979,46.237  " fill="#fc6c22" data-fill-palette-color="accent"></polygon><polygon points="45.343,43.042 45,42.699 44.679,43.021 45.023,43.169  " fill="#fc6c22" data-fill-palette-color="accent"></polygon><polygon points="44.979,46.237 45.274,46.119 44.707,46.119  " fill="#fc6c22" data-fill-palette-color="accent"></polygon><polygon points="45.023,43.169 44.729,43.286 45.293,43.286  " fill="#fc6c22" data-fill-palette-color="accent"></polygon><polygon points="44.069,43.286 43.583,43.286 43.583,43.741 43.932,43.603  " fill="#fc6c22" data-fill-palette-color="accent"></polygon><polygon points="45.933,46.119 46.418,46.119 46.418,45.666 46.069,45.804  " fill="#fc6c22" data-fill-palette-color="accent"></polygon><polygon points="46.069,45.804 46.194,45.514 45.796,45.913  " fill="#fc6c22" data-fill-palette-color="accent"></polygon><polygon points="43.932,43.603 43.807,43.893 44.205,43.494  " fill="#fc6c22" data-fill-palette-color="accent"></polygon><polygon points="43.583,45.635 43.583,46.119 44.038,46.119 43.899,45.771  " fill="#fc6c22" data-fill-palette-color="accent"></polygon><polygon points="46.418,43.771 46.418,43.286 45.962,43.286 46.1,43.634  " fill="#fc6c22" data-fill-palette-color="accent"></polygon><polygon points="43.899,45.771 44.19,45.896 43.791,45.497  " fill="#fc6c22" data-fill-palette-color="accent"></polygon><polygon points="46.1,43.634 45.81,43.509 46.209,43.908  " fill="#fc6c22" data-fill-palette-color="accent"></polygon><polygon points="46.418,45.29 46.418,44.996 46.194,45.514  " fill="#fc6c22" data-fill-palette-color="accent"></polygon><polygon points="43.583,44.116 43.583,44.41 43.807,43.893  " fill="#fc6c22" data-fill-palette-color="accent"></polygon><polygon points="45.587,43.286 45.293,43.286 45.81,43.509  " fill="#fc6c22" data-fill-palette-color="accent"></polygon><polygon points="44.413,46.119 44.707,46.119 44.19,45.896  " fill="#fc6c22" data-fill-palette-color="accent"></polygon><polygon points="45.589,46.119 45.796,45.913 45.274,46.119  " fill="#fc6c22" data-fill-palette-color="accent"></polygon><polygon points="44.414,43.286 44.205,43.494 44.729,43.286  " fill="#fc6c22" data-fill-palette-color="accent"></polygon><polygon points="43.583,45.29 43.791,45.497 43.583,44.976  " fill="#fc6c22" data-fill-palette-color="accent"></polygon><polygon points="46.418,44.117 46.209,43.908 46.418,44.435  " fill="#fc6c22" data-fill-palette-color="accent"></polygon></g></svg></g></svg></g><g></g></svg></g><defs></defs></svg><rect width="395.52" height="186.17357570114532" fill="none" stroke="none" visibility="hidden"></rect></g></svg></g></svg>